<?xml version="1.0" encoding="UTF-8" standalone="no"?>
<!-- Created with Inkscape (http://www.inkscape.org/) -->

<svg
   width="48"
   height="48"
   viewBox="0 0 12.7 12.7"
   version="1.1"
   id="svg5"
   xmlns="http://www.w3.org/2000/svg"
   xmlns:svg="http://www.w3.org/2000/svg">
  <defs
     id="defs2" />
  <g
     id="layer1">
    <g
       id="g3019"
       transform="matrix(0.81258688,0,0,0.81258688,1.1900733,0.80627025)">
      <path
         id="path1368"
         style="fill:#dcc1c1;fill-opacity:1;fill-rule:evenodd;stroke:none;stroke-width:6.49042;stroke-linecap:square;paint-order:markers stroke fill"
         d="M 5.7578847,6.8223226 8.1115536,8.4837199 9.0717858,7.7328613 7.7818964,6.8223226 Z" />
      <path
         id="path3729"
         style="fill:#ebebeb;fill-opacity:1;stroke:none;stroke-width:0.239276px;stroke-linecap:butt;stroke-linejoin:miter;stroke-opacity:1"
         d="M 5.7578847,6.8223226 1.7770612,9.632487 0.796542,10.324434 1.7770612,11.06134 7.7818964,6.8223226 Z" />
      <path
         id="path3726"
         style="fill:#d74cd9;fill-opacity:1;fill-rule:evenodd;stroke:none;stroke-width:3.64804;stroke-linecap:square;paint-order:markers stroke fill"
         d="M 0.796542,4.4400391 V 6.8223226 9.2046061 L 4.1717258,6.8223226 Z" />
      <path
         id="path3839"
         style="fill:#690202;fill-opacity:1;fill-rule:evenodd;stroke:none;stroke-width:6.49042;stroke-linecap:square;paint-order:markers stroke fill"
         d="M 8.7336761,7.2098958 11.903458,9.4474854 V 8.018632 L 10.757687,7.2098958 Z" />
      <path
         style="fill:#b31e1e;fill-opacity:1;stroke:none;stroke-width:0.239276px;stroke-linecap:butt;stroke-linejoin:miter;stroke-opacity:1"
         d="M 10.757687,7.2098957 8.111224,9.0667386 7.1897808,8.2997518 8.7336761,7.2098957 Z"
         id="path2188" />
      <path
         style="fill:#d74cd9;fill-opacity:1;stroke:none;stroke-width:0.239276px;stroke-linecap:butt;stroke-linejoin:miter;stroke-opacity:1"
         d="M 7.1897809,8.2996718 9.3481908,9.8230933 9.3484018,11.25214 7.1897809,9.7280083 Z"
         id="path1340" />
      <path
         id="path3919"
         style="fill:#4b6abd;fill-opacity:1;fill-rule:evenodd;stroke:none;stroke-width:6.49042;stroke-linecap:square;paint-order:markers stroke fill"
         d="M 11.903458,8.0191488 9.3481908,9.823173 v 1.428853 L 11.903458,9.4480021 Z" />
      <path
         id="path2343"
         style="fill:#dcc1c1;fill-opacity:1;fill-rule:evenodd;stroke:none;stroke-width:6.49042;stroke-linecap:square;paint-order:markers stroke fill"
         d="M 5.7578847,6.8223224 8.1115536,5.1609251 9.0717858,5.9117837 7.7818964,6.8223224 Z" />
      <path
         style="fill:#690202;fill-opacity:1;stroke:none;stroke-width:0.239276px;stroke-linecap:butt;stroke-linejoin:miter;stroke-opacity:1"
         d="M 10.757687,6.4347493 8.111224,4.5779064 7.1897808,5.3448932 8.7336761,6.4347493 Z"
         id="path2353" />
      <path
         id="path2345"
         style="fill:#ebebeb;fill-opacity:1;stroke:none;stroke-width:0.239276px;stroke-linecap:butt;stroke-linejoin:miter;stroke-opacity:1"
         d="M 5.7578847,6.8223224 1.7770612,4.012158 0.796542,3.320211 1.7770612,2.583305 7.7818964,6.8223224 Z" />
      <path
         style="fill:#d74cd9;fill-opacity:1;stroke:none;stroke-width:0.239276px;stroke-linecap:butt;stroke-linejoin:miter;stroke-opacity:1"
         d="M 7.1897809,5.3449732 9.3481908,3.8215517 9.3484018,2.392505 7.1897809,3.9166367 Z"
         id="path2355" />
      <path
         id="path2357"
         style="fill:#4b6abd;fill-opacity:1;fill-rule:evenodd;stroke:none;stroke-width:6.49042;stroke-linecap:square;paint-order:markers stroke fill"
         d="M 11.903458,5.6254962 9.3481908,3.821472 V 2.392619 l 2.5552672,1.8040239 z" />
      <path
         id="path2987"
         style="fill:#ffffff;fill-opacity:1;fill-rule:evenodd;stroke:none;stroke-width:6.49042;stroke-linecap:square;paint-order:markers stroke fill"
         d="M 1.7770612,2.5833049 V 4.0121582 L 5.7578847,6.8223226 1.7770612,9.632487 V 11.06134 L 7.7818964,6.8223226 Z" />
      <path
         id="path2351"
         style="fill:#b31e1e;fill-opacity:1;fill-rule:evenodd;stroke:none;stroke-width:6.49042;stroke-linecap:square;paint-order:markers stroke fill"
         d="M 8.7336761,6.4347492 11.903458,4.1971596 V 5.626013 l -1.145771,0.8087362 z" />
    </g>
  </g>
</svg>
